<svg width="30" height="42" viewBox="0 0 30 42" fill="none" xmlns="http://www.w3.org/2000/svg">
<path d="M7 9.00002V5.00002C7 3.93915 7.42143 2.92173 8.17158 2.17159C8.92172 1.42144 9.93914 1.00002 11 1.00002H19C20.0609 1.00002 21.0783 1.42144 21.8284 2.17159C22.5786 2.92173 23 3.93915 23 5.00002V9.00002M29 9.00002V37C29 38.0609 28.5786 39.0783 27.8284 39.8284C27.0783 40.5786 26.0609 41 25 41H5C3.93913 41 2.92172 40.5786 2.17157 39.8284C1.42143 39.0783 1 38.0609 1 37V9.00002H29Z" stroke="#FF6680" stroke-width="2" stroke-linecap="round" stroke-linejoin="round"/>
</svg>
